<?xml version="1.0" standalone="no"?><!DOCTYPE svg PUBLIC "-//W3C//DTD SVG 1.1//EN" "http://www.w3.org/Graphics/SVG/1.1/DTD/svg11.dtd"><svg t="1760888686932" class="icon" viewBox="0 0 1024 1024" version="1.1" xmlns="http://www.w3.org/2000/svg" p-id="2085" width="128" height="128" xmlns:xlink="http://www.w3.org/1999/xlink"><path d="M544 128c0-17.066667-14.933333-32-32-32s-32 14.933333-32 32v83.2l-55.466667-44.8c-14.933333-10.666667-34.133333-8.533333-44.8 4.266667-10.666667 14.933333-8.533333 34.133333 4.266667 44.8l93.866667 74.666666v164.266667l-142.933334-81.066667-14.933333-119.466666c-2.133333-17.066667-19.2-29.866667-36.266667-27.733334-17.066667 2.133333-29.866667 19.2-27.733333 36.266667l10.666667 68.266667-72.533334-40.533334c-14.933333-8.533333-34.133333-4.266667-42.666666 10.666667-8.533333 14.933333-4.266667 34.133333 10.666666 42.666667L234.666667 384l-64 29.866667c-17.066667 6.4-25.6 25.6-19.2 40.533333 6.4 17.066667 25.6 25.6 40.533333 19.2l113.066667-44.8L448 512l-142.933333 81.066667L192 548.266667c-17.066667-6.4-34.133333 2.133333-40.533333 19.2-6.4 17.066667 2.133333 34.133333 19.2 40.533333l66.133333 25.6-72.533333 40.533333c-14.933333 8.533333-21.333333 27.733333-10.666667 42.666667 8.533333 14.933333 27.733333 21.333333 42.666667 10.666667l72.533333-40.533334-12.8 72.533334c-2.133333 17.066667 8.533333 34.133333 27.733333 36.266666 17.066667 2.133333 34.133333-8.533333 36.266667-27.733333l19.2-119.466667 142.933333-81.066666v164.266666l-93.866666 74.666667c-14.933333 10.666667-17.066667 32-4.266667 44.8 10.666667 14.933333 32 17.066667 44.8 4.266667l55.466667-44.8v85.333333c0 17.066667 14.933333 32 32 32s32-14.933333 32-32v-83.2l55.466666 44.8c14.933333 10.666667 34.133333 8.533333 44.8-4.266667 10.666667-14.933333 8.533333-34.133333-4.266666-44.8l-93.866667-74.666666v-164.266667l142.933333 81.066667 19.2 119.466666c2.133333 17.066667 19.2 29.866667 36.266667 27.733334 17.066667-2.133333 29.866667-19.2 27.733333-36.266667l-10.666666-68.266667 72.533333 40.533334c14.933333 8.533333 34.133333 4.266667 42.666667-10.666667 8.533333-14.933333 4.266667-34.133333-10.666667-42.666667L789.333333 635.733333l66.133334-25.6c17.066667-6.4 25.6-25.6 19.2-40.533333-6.4-17.066667-25.6-25.6-40.533334-19.2l-113.066666 44.8L576 512l142.933333-81.066667 113.066667 44.8c17.066667 6.4 34.133333-2.133333 40.533333-19.2 6.4-17.066667-2.133333-34.133333-19.2-40.533333l-64-27.733333 72.533334-40.533334c14.933333-8.533333 21.333333-27.733333 10.666666-42.666666-8.533333-14.933333-27.733333-21.333333-42.666666-10.666667l-72.533334 40.533333 10.666667-68.266666c2.133333-17.066667-8.533333-34.133333-27.733333-36.266667-17.066667-2.133333-34.133333 8.533333-36.266667 27.733333l-19.2 119.466667-142.933333 81.066667v-164.266667l93.866666-74.666667c14.933333-10.666667 17.066667-32 4.266667-44.8-10.666667-14.933333-32-17.066667-44.8-4.266666l-55.466667 44.8V128z" p-id="2086" fill="#ffffff"></path></svg>